<svg width="50" height="50" viewBox="0 0 50 50" fill="none" xmlns="http://www.w3.org/2000/svg">
<path d="M9.53129 9.53126C10.1173 8.94541 10.912 8.6163 11.7407 8.6163C12.5693 8.6163 13.364 8.94541 13.95 9.53126L25 20.5813L36.05 9.53126C36.6394 8.96202 37.4288 8.64703 38.2482 8.65415C39.0675 8.66127 39.8513 8.98993 40.4307 9.56933C41.0101 10.1487 41.3388 10.9325 41.3459 11.7519C41.353 12.5712 41.038 13.3606 40.4688 13.95L29.4188 25L40.4688 36.05C41.038 36.6394 41.353 37.4288 41.3459 38.2481C41.3388 39.0675 41.0101 39.8513 40.4307 40.4307C39.8513 41.0101 39.0675 41.3387 38.2482 41.3459C37.4288 41.353 36.6394 41.038 36.05 40.4688L25 29.4188L13.95 40.4688C13.3607 41.038 12.5713 41.353 11.7519 41.3459C10.9325 41.3387 10.1488 41.0101 9.56936 40.4307C8.98996 39.8513 8.6613 39.0675 8.65418 38.2481C8.64706 37.4288 8.96205 36.6394 9.53129 36.05L20.5813 25L9.53129 13.95C8.94544 13.364 8.61633 12.5693 8.61633 11.7406C8.61633 10.912 8.94544 10.1173 9.53129 9.53126Z" fill="#2A9D8F"/>
</svg>
