<svg width="47" height="47" viewBox="0 0 47 47" fill="none" xmlns="http://www.w3.org/2000/svg">
<g clip-path="url(#clip0_35_80)">
<path d="M47 23.4765C47 10.5162 36.472 0 23.5 0C10.528 0 0 10.5162 0 23.4765C0 30.6146 3.243 37.0477 8.319 41.3659C8.366 41.4129 8.413 41.4129 8.413 41.4599C8.836 41.7889 9.259 42.1179 9.729 42.4469C9.964 42.5879 10.152 42.7729 10.387 42.9609C14.2721 45.5907 18.8555 46.9974 23.547 47C28.2385 46.9974 32.8219 45.5907 36.707 42.9609C36.942 42.8199 37.13 42.6349 37.365 42.4909C37.788 42.1649 38.258 41.8359 38.681 41.5069C38.728 41.4599 38.775 41.4599 38.775 41.4129C43.757 37.0448 47 30.6146 47 23.4765ZM23.5 44.0419C19.082 44.0419 15.04 42.6319 11.703 40.2849C11.75 39.9089 11.844 39.5358 11.938 39.1598C12.219 38.1411 12.6297 37.1628 13.16 36.2487C13.677 35.3558 14.288 34.5568 15.04 33.8517C15.745 33.1468 16.591 32.4917 17.437 31.9747C18.33 31.4577 19.27 31.0817 20.304 30.7997C21.3464 30.5205 22.4209 30.3793 23.5 30.3796C26.7041 30.3554 29.7907 31.5845 32.101 33.8048C33.182 34.8857 34.028 36.1538 34.639 37.6088C34.968 38.4548 35.203 39.3468 35.344 40.2849C31.8753 42.7235 27.7401 44.0352 23.5 44.0419ZM16.309 22.3044C15.8957 21.356 15.6875 20.3309 15.698 19.2964C15.698 18.2654 15.886 17.2314 16.309 16.2914C16.732 15.3514 17.296 14.5083 18.001 13.8033C18.706 13.0983 19.552 12.5373 20.492 12.1143C21.432 11.6912 22.466 11.5033 23.5 11.5033C24.581 11.5033 25.568 11.6912 26.508 12.1143C27.448 12.5373 28.294 13.1012 28.999 13.8033C29.704 14.5083 30.268 15.3543 30.691 16.2914C31.114 17.2314 31.302 18.2654 31.302 19.2964C31.302 20.3774 31.114 21.3644 30.691 22.3015C30.2851 23.2289 29.7115 24.0734 28.999 24.7925C28.2796 25.5039 27.4352 26.0765 26.508 26.4816C24.5655 27.2781 22.3875 27.2781 20.445 26.4816C19.5178 26.0765 18.6734 25.5039 17.954 24.7925C17.2409 24.0835 16.681 23.2386 16.309 22.3044ZM38.117 37.8908C38.117 37.7968 38.07 37.7498 38.07 37.6558C37.6086 36.185 36.9272 34.7925 36.049 33.5257C35.1701 32.2495 34.0909 31.1237 32.853 30.1916C31.9073 29.4799 30.8821 28.8806 29.798 28.4056C30.2889 28.0772 30.7455 27.7003 31.161 27.2806C31.8617 26.5888 32.4771 25.8156 32.994 24.9776C34.0385 23.2689 34.5764 21.2988 34.545 19.2964C34.5604 17.8144 34.2725 16.345 33.699 14.9783C33.1335 13.6613 32.3197 12.4655 31.302 11.4563C30.2833 10.4606 29.0879 9.66362 27.777 9.10625C26.4083 8.53301 24.9368 8.24609 23.453 8.26319C21.969 8.24702 20.4975 8.53494 19.129 9.10919C17.8037 9.65976 16.6044 10.4743 15.604 11.5033C14.6031 12.5166 13.8055 13.7121 13.254 15.0253C12.6805 16.392 12.3926 17.8614 12.408 19.3434C12.408 20.3774 12.549 21.3635 12.831 22.3015C13.113 23.2885 13.489 24.1815 14.006 25.0246C14.476 25.8706 15.134 26.6226 15.839 27.3276C16.262 27.7506 16.732 28.1256 17.249 28.4526C16.1601 28.9374 15.1342 29.5529 14.194 30.2856C12.972 31.2256 11.891 32.3507 10.998 33.5727C10.1117 34.8348 9.42966 36.2285 8.977 37.7028C8.93 37.7968 8.93 37.8908 8.93 37.9378C5.217 34.1807 2.914 29.1106 2.914 23.4765C2.914 12.1613 12.173 2.91106 23.5 2.91106C34.827 2.91106 44.086 12.1613 44.086 23.4765C44.0798 28.8814 41.9337 34.0639 38.117 37.8908Z" fill="#264653"/>
</g>
<defs>
<clipPath id="clip0_35_80">
<rect width="47" height="47" fill="white"/>
</clipPath>
</defs>
</svg>
